<svg xmlns="http://www.w3.org/2000/svg" viewBox="0 0 542.6 209.68"><defs><style>.cls-1,.cls-2,.cls-3{isolation:isolate;}.cls-2,.cls-3{font-size:126px;fill:#fc182d;font-family:EscapeRegular, Escape;}.cls-3{letter-spacing:-0.04em;}.cls-4{fill:#fefefe;}.cls-5{fill:#f96372;}.cls-6{fill:#ca1022;}.cls-7{fill:#92111e;}.cls-8{fill:#fb2136;}.cls-9{fill:#e41024;}.cls-10{fill:#fc384b;}.cls-11{fill:#fb5262;}.cls-12{fill:#f31328;}</style></defs><g id="Layer_2" data-name="Layer 2"><g id="Layer_1-2" data-name="Layer 1"><g class="cls-1"><text class="cls-2" transform="translate(20.82 128.31)">MICTL</text><text class="cls-3" transform="translate(271.3 128.31)">A</text><text class="cls-2" transform="translate(336.32 128.31)">N</text></g><path class="cls-4" d="M0,209.21l7.2-20.07H9.49l7.21,20.07H14.24L12.14,203H4.6l-2.1,6.18ZM8.32,192l-3.1,9.07h6.26L8.38,192Z"/><path class="cls-4" d="M27.37,209.21V189.14h2.34l10.41,16.05h.06V189.14h2.25v20.07H40.09L29.67,193.16h0v16.05Z"/><path class="cls-4" d="M67,209.21l7.21-20.07h2.29l7.2,20.07H81.22L79.11,203H71.53l-2.1,6.18ZM75.29,192l-3.1,9.07h6.26L75.35,192Z"/><path class="cls-4" d="M94.35,209.21V189.14h2.34l10.4,16.05h.06V189.14h2.25v20.07h-2.34L96.6,193.16h0v16.05Z"/><path class="cls-4" d="M123.67,200.63a9.62,9.62,0,0,0,.64,3.75,5,5,0,0,0,1.86,2.36,5.38,5.38,0,0,0,3,.81,5.8,5.8,0,0,0,2.56-.53,4.31,4.31,0,0,0,1.74-1.48,4.15,4.15,0,0,0,.67-2.21h2.32a5.85,5.85,0,0,1-1,3.26,6.58,6.58,0,0,1-2.59,2.26,8.25,8.25,0,0,1-3.75.83,7.93,7.93,0,0,1-4.2-1.07,6.9,6.9,0,0,1-2.68-3.1,11.69,11.69,0,0,1-.93-4.88V198a11.78,11.78,0,0,1,.93-4.94,7,7,0,0,1,2.68-3.15,7.66,7.66,0,0,1,4.2-1.09,7.84,7.84,0,0,1,2.92.5,7,7,0,0,1,2.3,1.4,6.37,6.37,0,0,1,1.53,2.13,6.46,6.46,0,0,1,.54,2.68h-2.32a4.66,4.66,0,0,0-.67-2.39,4.49,4.49,0,0,0-1.74-1.61,5.4,5.4,0,0,0-2.56-.58,5.14,5.14,0,0,0-3,.82,5,5,0,0,0-1.86,2.4,10,10,0,0,0-.64,3.83Z"/><path class="cls-4" d="M148.24,209.21V189.14h2.36v20.07Z"/><path class="cls-4" d="M175.2,209.21H163.31V189.14H175.2v2.13h-9.55v6.62h9V200h-9v7.07h9.55Z"/><path class="cls-4" d="M187.2,209.21V189.14h2.34L200,205.19H200V189.14h2.24v20.07h-2.33L189.5,193.16h-.05v16.05Z"/><path class="cls-4" d="M219,209.21v-18h-6.16v-2.12h14.64v2.12h-6.17v18Z"/><path class="cls-4" d="M252,209.21V189.14h2.25l6.79,15.92h.06l6.77-15.92h2.25v20.07H268v-14.8H268l-5.82,13.22H260l-5.82-13.25h-.06v14.8Z"/><path class="cls-4" d="M287.26,209.21V200.4l-6.72-11.26h2.69l5.15,9h.07l5.14-9h2.69L289.6,200.4v8.81Z"/><path class="cls-4" d="M311.72,209.21v-18H305.6v-2.12h14.65v2.12h-6.18v18Z"/><path class="cls-4" d="M343.51,209.21v-9.35H333.13v9.35H330.8V189.14h2.33v8.6h10.38v-8.6h2.34v20.07Z"/><path class="cls-4" d="M358.6,209.21V189.14h2.34v20.07Z"/><path class="cls-4" d="M375.19,200.63a9.62,9.62,0,0,0,.64,3.75,5,5,0,0,0,1.86,2.36,5.38,5.38,0,0,0,3,.81,5.8,5.8,0,0,0,2.56-.53,4.31,4.31,0,0,0,1.74-1.48,4.15,4.15,0,0,0,.67-2.21H388a5.83,5.83,0,0,1-1,3.26,6.74,6.74,0,0,1-2.59,2.26,8.25,8.25,0,0,1-3.75.83,7.93,7.93,0,0,1-4.2-1.07,6.9,6.9,0,0,1-2.68-3.1,11.69,11.69,0,0,1-.93-4.88V198a11.78,11.78,0,0,1,.93-4.94,7,7,0,0,1,2.68-3.15,7.66,7.66,0,0,1,4.2-1.09,7.84,7.84,0,0,1,2.92.5,7,7,0,0,1,2.3,1.4,6.37,6.37,0,0,1,1.53,2.13,6.46,6.46,0,0,1,.54,2.68H385.6a4.66,4.66,0,0,0-.67-2.39,4.49,4.49,0,0,0-1.74-1.61,5.4,5.4,0,0,0-2.56-.58,5.14,5.14,0,0,0-3,.82,5,5,0,0,0-1.86,2.4,10,10,0,0,0-.64,3.83Z"/><path class="cls-4" d="M397.7,209.21l7.2-20.07h2.29l7.21,20.07h-2.46l-2.1-6.18h-7.59l-2.1,6.18ZM406,192l-3.1,9.07h6.26l-3.1-9.07Z"/><path class="cls-4" d="M436.77,209.21h-11.7V189.14h2.34v17.94h9.36Z"/><path class="cls-4" d="M465.25,209.21v-18h-6.16v-2.12h14.64v2.12H467.6v18Z"/><path class="cls-4" d="M481,209.21l7.2-20.07h2.3l7.2,20.07h-2.46l-2.1-6.18H485.6l-2.1,6.18ZM489.33,192l-3.1,9.07h6.26l-3.1-9.07Z"/><path class="cls-4" d="M520.09,209.21h-11.7V189.14h2.33v17.94h9.37Z"/><path class="cls-4" d="M542.6,209.21H530.68V189.14H542.6v2.13h-9.55v6.62h9V200h-9v7.07h9.55Z"/><path class="cls-5" d="M439.31,151.1a1.22,1.22,0,0,0,.39-.74l14.53-.06.29.8Z"/><path class="cls-6" d="M402.67,40.7c-.66-.06-1-1.14-1.82-.61V38.3c1.09.09,1-1.24,1.86-1.48.16,1.8,1.65,1.35,2.73,1.61C405.35,40.21,403.5,39.8,402.67,40.7Z"/><path class="cls-7" d="M454.23,150.3l-14.53.06c-1.62-2.75-1.5-6.58-6.08-7.44a4,4,0,0,1-2.92-4.84,3.78,3.78,0,0,1,.57-1.28c3.3,1.19,6.49,2.46,7.37,6.47.07.33,1,.48,1.47.72h.07l.88.87h0a.89.89,0,0,0,.89.86h0c2.18,3.06,4.39,2.63,6.63.07a2.36,2.36,0,0,0,.52-.09l1.11-.68a1.9,1.9,0,0,0,.42-.18l3.77-.13c1.56,0,3.2.6,4.58-.63l2.68-.09c1.93,1.09,4,.78,6.06.56a1.56,1.56,0,0,0,2.11-1.36l1-1.06.35-.08,1.2.11c1.91,0,3.41-.48,3.57-2.73,0-.25.06-.49.08-.74a3.42,3.42,0,0,0,.83-.1c2.9-.72,5.94-1.13,8.15-3.47l2.48-.25c2.28.09,2.74-1.49,3-3.26l1.61-.93.87-1.07h0l.88-.89h0c3-1.42,4-4.46,5.52-7a3.75,3.75,0,0,0,3.51-1.73l1-.86.91-.89.89-.9.9-.89.89-.92.86-1c1.53-.28,1.59-1.52,1.76-2.69,3.58-3.18,3.92-8.28,7-11.77h0a1.56,1.56,0,0,0,1.75-1.35,1.77,1.77,0,0,0,0-.46,2.05,2.05,0,0,1,.93-1.77h1.86c-3.28,10.26-9.21,18.92-16.3,26.85C491.69,138.72,474.71,147.85,454.23,150.3Z"/><path class="cls-8" d="M516.35,24.8a64.06,64.06,0,0,1,8.72,22.45l-9.91,1.65c-.11-1.84,3.49-2.92,1.06-5.23l-.76-3.57c1.54,0,2.56-.41,2.56-2.23,0-4.19-1.1-7.9-4.48-10.64-3.1-2.52-6.1-1.27-9.08.31.39-1.63-.68-3-.81-4.54a2.42,2.42,0,0,0,.83-3.28c2.22-2.12.2-4.36.2-6.55,3.09,1,2.6,4.07,3.5,6.32C508.51,24.12,509.74,24.92,516.35,24.8Z"/><path class="cls-5" d="M477,11.49c.54-2.63,2.23-3.9,4.81-4.44,3.88-.82,7.87-1.6,11.33-3.55,4.27-2.4,7.15-1.14,9.56,2.59-2.64.72-5.83-1.63-8,1.46l-.88,1.25h0c-1.71-.25-3.27-.17-4,1.81h-.09a1.15,1.15,0,0,0-1.31.88h0c-.83-.15-1.51,0-1.79.91h0l-1.33.89h-.07l-2.14-.18Z"/><path class="cls-9" d="M515.16,48.9l9.91-1.66c.59,1.74,1.27,3.47,1,5.37v9c-2.21-.79-4.36-1.16-6.16.89l-.18-2.3c1.12-2.72,1.73-5.36-.52-7.91-2.09-2.39-4.69-1.51-7-1a43.43,43.43,0,0,1-7.54.62v-1l3.4-.14,1.07-.73,3.52-.87c.36.59.67.52.94-.08Z"/><path class="cls-8" d="M431.4,4.17a12.23,12.23,0,0,1,.9,5.31L432,12.26c-1.22.23-2.26.69-2.41,2.1-.12,1.16.7,1.46,1.64,1.57A2.8,2.8,0,0,0,434,17.71v1.85c-4-.81-7.14.84-9.85,3.61L424,17.6V16.06c3.85-3.26,3.92-5.13.31-8.39-.83-.75-2.1-1.14-2-2.6a.71.71,0,0,1,.1-.75C425.42,5.24,428.44,6.58,431.4,4.17Z"/><path class="cls-6" d="M521.68,96.54h-1.86c-.47-4.18,3.25-7.42,2.63-11.65,1.48-1.41,1.17-2.71-.17-4a3.45,3.45,0,0,0-2.47,2.24l-1.79.09V80.51c.1-1.84-1.32-2.76-2.38-3.89-.84-.92-1.58-1.81-.08-2.78l1.87-.1,1.42.42a5.81,5.81,0,0,0,.81,2c1,1,1.09,3.25,2.9,3s2.48-2.42,3.18-3.93c1-2.25-.57-5,1-7.27A44.52,44.52,0,0,1,526,80.63a3.67,3.67,0,0,0-.72,3.34l-.24,1.16a2,2,0,0,0-.63,2.36,19.3,19.3,0,0,1-2,6.38c-1,.74-.76,1.8-.77,2.8Z"/><path class="cls-10" d="M442,13.17c.42-3-1.42-6.23.88-9.06,1.88,4.42,4.05,2,6.18.25,2.08,2.94.15,5.92.1,8.88-1,.65-.82,1.72-.87,2.69-2.94-.59-5.37,1.12-8,1.79l-.1-.1C440.12,15.88,442.26,15,442,13.17Z"/><path class="cls-11" d="M494.71,7.55c2.2-3.09,5.39-.74,8-1.46,4.23,3.91,8.46,7.83,10.53,13.45h-5.09c-.9-2.25-.41-5.28-3.5-6.32h0l-.86-.87v0l-.93-.8h0l-.88-.88h0l-.88-.87h0c0-1.89-1.37-1.8-2.66-1.84Z"/><path class="cls-10" d="M465.14,16.8c.06.28.12.55.16.83.1,5.51,1.45,7.12,6.09,7.2,1.19,0,2.38,0,3.57-.07-2.19,3.89-5.24,1.14-7.95,1l-2.6-1.83c-.81-2.71-2.28-4.6-5.45-4.37l-1.72.07-5.44-.13.05-1.84h4.42c3.82.94,3.74-3.55,6.22-4.48C462.54,15,462.76,16.68,465.14,16.8Z"/><path class="cls-11" d="M462.49,13.17c-2.48.93-2.4,5.42-6.22,4.48l.05-2.49a2.52,2.52,0,0,0,2-2c.88-.7.74-1.68.71-2.63,1.43-6.33,1.43-6.33,8.91-2.7L467,8.6Z"/><path class="cls-11" d="M403.52,35.58a22.54,22.54,0,0,1,6.31-7.12c2.81.31,5-1.09,7.26-2.48,1-.62,1.93-1.73,2.58.28l-1.84,2.17h0c-2.05,0-2.94,1.77-4.26,2.87C410.64,33.72,407.87,36.51,403.52,35.58Z"/><path class="cls-9" d="M526.82,67.87c-1.62,2.26,0,5-1.05,7.27-.7,1.51-1.27,3.62-3.18,3.93s-1.92-1.94-2.9-3a5.81,5.81,0,0,1-.81-2c3,.23,4.09-1.83,5.17-4.08s.53-4.71,2-6.69h.73Z"/><path class="cls-5" d="M475,24.8c-1.19,0-2.38.09-3.57.07-4.64-.08-6-1.69-6.09-7.2a15.29,15.29,0,0,0,6.35,4.23c2.32-1.41,1.52-4.45,3.41-6,.31,2.1.61,4.2.92,6.3Z"/><path class="cls-10" d="M476,22.19c-.31-2.1-.61-4.2-.92-6.3l2-4.4L483.18,13c-2.45,2.07-4.9,4.13-5.4,7.59A1.72,1.72,0,0,1,476,22.19Z"/><path class="cls-5" d="M419.67,26.26c-.65-2-1.59-.9-2.58-.28-2.22,1.39-4.45,2.79-7.26,2.48a30.3,30.3,0,0,1,11.55-8.19v4.39L421,25.8a1,1,0,0,0-.32.37.48.48,0,0,0-.13.42A6.1,6.1,0,0,1,419.67,26.26Z"/><path class="cls-5" d="M431.4,4.17c-3,2.41-6,1.07-9,.15.28-2.67,1.67-4.4,4.43-4.32C429.36.08,431.24,1.29,431.4,4.17Z"/><path class="cls-12" d="M403.52,35.58c4.35.93,7.12-1.86,10-4.29,1.32-1.1,2.21-2.85,4.26-2.87-1.48,5.08-6.69,6.47-9.81,9.93l-2.57.08c-1.08-.26-2.57.19-2.73-1.61Z"/><path class="cls-11" d="M442,13.17c.3,1.86-1.84,2.71-1.84,4.45l-6.18.09a2.8,2.8,0,0,1-2.69-1.78l.77-3.67.28-2.78C433.85,15.36,434.65,15.66,442,13.17Z"/><path class="cls-9" d="M422.3,5.07c-.1,1.46,1.17,1.85,2,2.6,3.61,3.26,3.54,5.13-.31,8.39C423,12.48,419.78,9.21,422.3,5.07Z"/><path class="cls-10" d="M508.18,19.49h5.09c1.23,1.63,2.6,3.18,3.08,5.25C509.74,24.92,508.51,24.12,508.18,19.49Z"/><path class="cls-8" d="M462.49,13.17,467,8.64l.94,1a30,30,0,0,1-2.79,7.16C462.76,16.68,462.54,15,462.49,13.17Z"/><path class="cls-5" d="M449,4.36c-2.13,1.72-4.3,4.17-6.18-.25C445,1,447.05,2,449,4.36Z"/><path class="cls-11" d="M421.37,24.66V20.27L424,17.6l.07,5.57a2.08,2.08,0,0,0,0,.61C423.21,24.21,422.45,24.93,421.37,24.66Z"/><path class="cls-5" d="M456.32,15.16l-.05,2.49h-4.42a3.06,3.06,0,0,0-.07-.79V14.27A5.68,5.68,0,0,1,456.32,15.16Z"/><path class="cls-11" d="M451.81,14.3v2.59H450l-1.75-1c0-1-.17-2,.87-2.69Z"/><path class="cls-6" d="M526.81,63.36h-.73V52.57C527.47,56.12,526.83,59.8,526.81,63.36Z"/><path class="cls-5" d="M525.32,83.88a3.67,3.67,0,0,1,.72-3.34A3.72,3.72,0,0,1,525.32,83.88Z"/><path class="cls-11" d="M524.45,87.4a2,2,0,0,1,.63-2.36A2.32,2.32,0,0,1,524.45,87.4Z"/><path class="cls-10" d="M468,9.62l-.94-1,.91-.77C469,8.43,468.4,9,468,9.62Z"/><path class="cls-5" d="M459,10.57c0,.95.17,1.93-.71,2.63A3,3,0,0,1,459,10.57Z"/><path class="cls-7" d="M521.63,96.58c0-1-.19-2.06.77-2.8C522.49,94.8,522.62,95.85,521.63,96.58Z"/><path class="cls-10" d="M416.75,38.52c6.48-7.84,15.17-11.37,25-12.59q3.75-.29,7.53-.19l3.48,1a2.7,2.7,0,0,0,2.93.68,18.89,18.89,0,0,1,7.83,2.84c-1.29,1.21.54,3.7-1.82,4.47-3,.34-6-.43-8.93-.87a2.23,2.23,0,0,0-3.1-.53,2,2,0,0,0-.49.48c-7-1.67-13.67-.12-20.31,1.76A5.7,5.7,0,0,0,425,38.24l-.9.9-.88.89-1,1.76C419.57,42,417,42.16,416.75,38.52Z"/><path class="cls-6" d="M424.06,23.8a2.08,2.08,0,0,1,0-.61c2.74-2.79,5.9-4.39,9.9-3.63l6.21.06c.17,1.77,1.47,1.67,2.73,1.65h5.38c3,.51,5.89,1.25,8.94.92,1.75,1.17,4.27,1.79,3.54,4.8l-8.06-1.91a36.39,36.39,0,0,0-10.7-1c-1.83-.26-3.65-.49-5.28.7-10.16,2.11-18.22,7.64-25,15.29L408,38.33c3.12-3.46,8.33-4.85,9.81-9.93h0c1.35.07,2.67.08,2.66-1.83a.48.48,0,0,1,.13-.42.58.58,0,0,0,.51.33C423.36,26.94,424.35,26,424.06,23.8Z"/><path class="cls-7" d="M435.55,91.06c.33,1.75.47,3.27-2.15,3.06C431.21,94,429,94,426.79,94c-8.78-.84-10.11-2.06-12.12-11-.62-2.75-1.31-5.47-1.84-8.24s-.68-5.12-4.3-5.69c-2.14-.34-2.6-2.59-2.15-4.71,1.8,2.21,4.73,2.25,7,3.61l.83.85c.32,2.49.79,5,.92,7.48.39,7.66,3.21,11.71,10.34,13.56C428.7,90.65,432.17,90.67,435.55,91.06Z"/><path class="cls-9" d="M437.56,92.8l.16-2.6c3.4,1.36,4.4,4,4.32,7.47-.07,3.27-1.75,5.93-2.86,8.79-1,2.49.31,5.28,1.94,4.81,4.86-1.42,9,1.07,13.43,1.33-1.47,3.24-3.37,1.48-5.4.63-2.51-1-5.4-1.53-7.53.42-1.58,1.44-3.32,3.56-1.22,6.07v1.62c-.17.75-.24,1.54-1,2-1.61-1.17-.4-4.69-3.7-4.47.74-3.88-.28-7.91,1-11.75,1.59-2.17-.12-4.71.78-7C440.06,97.8,440.11,95.4,437.56,92.8Z"/><path class="cls-8" d="M435.67,118.89c3.3-.22,2.09,3.3,3.7,4.47V126c-1.33,1.19-1.31,2.39-.07,3.62v1.73c-2.14,2.11-3.38,6.14-7.69,3.57C432.34,129.43,434.07,124.18,435.67,118.89Z"/><path class="cls-8" d="M414.18,68.8l-.83-.85c-.63-3.93-4.12-4.25-6.89-5.48-.37-1.15.45-2,.69-3,2.1-.24,4.11,1.1,6.24.38,0,1.11,1.79.86,1.67,1.73-.6,4.31,3,4.34,5.45,5.57,0,2-.39,4.14-2.36,4.81-2.2.75-1.55-2.47-3.1-3A5.31,5.31,0,0,0,414.18,68.8Z"/><path class="cls-12" d="M413.27,50.67l.17-.92.58-.61c2.44,3.77,6.28.89,9.29,2a13.25,13.25,0,0,0-.93,6.87,7.43,7.43,0,0,1-2-.7c-4.26-2.94-4.51-2.9-7.06,1.67a.89.89,0,0,1-.85-.07L410.72,58C410.81,55.26,413.33,53.42,413.27,50.67Z"/><path class="cls-9" d="M431.59,134.93c4.31,2.57,5.55-1.46,7.69-3.57,0,2.06,0,4.1,1.17,5.92v5.54l-.32,1.17c-.51-.24-1.4-.39-1.47-.72-.88-4-4.07-5.28-7.37-6.47Z"/><path class="cls-7" d="M408,38.35l3.69,1.74-3.1,5.22a24.18,24.18,0,0,1-5.93-4.61c.83-.86,2.68-.49,2.77-2.27Z"/><path class="cls-8" d="M416.75,38.52c.27,3.64,2.82,3.49,5.42,3.27.25,1-.39,1.86-.78,2.74-3.17,2.24-5.26-1-7.89-1.56l-.14-.35A4,4,0,0,1,415.13,40l.92-1Z"/><path class="cls-10" d="M413.27,50.67c.06,2.75-2.46,4.59-2.55,7.28l-1.3.28h-.6C408.46,54.61,407.69,50.8,413.27,50.67Z"/><path class="cls-9" d="M406.46,62.44c2.77,1.23,6.26,1.55,6.89,5.48-2.24-1.36-5.17-1.4-7-3.61Z"/><path class="cls-6" d="M414,49.14l-.58.61c-1.05-2.37-2.32-4.73-.08-7.13l.14.35c0,1.47-.71,3.07.77,4.28Z"/><path class="cls-5" d="M436.7,24.8c1.63-1.19,3.45-1,5.28-.7A9.76,9.76,0,0,1,436.7,24.8Z"/><path class="cls-10" d="M416.05,39.05l-.92,1Z"/><path class="cls-8" d="M454.43,144.8l-3.77.13c.18-1,.43-2.09-.74-2.76l-.22-4.94c3.16-.22,3.29-2.42,3-4.75a37.81,37.81,0,0,1-.87-6.53c.13-5.3.32-5.52,5.58-4.4h-.12l.65,1.86q1.44,6.27,2.89,12.54c-.19,2.09-3,3.8-.89,6.22l-1,1C457.36,143.4,455.14,142.05,454.43,144.8Z"/><path class="cls-10" d="M492.14,130.72l-1.61.93c-1.44.2-2.69.65-3,2.31-5,.88-8.68-.06-10.26-5.89-.73-2.71-1.58-6.1-4.84-7.53a5.89,5.89,0,0,1-1-3.36c-.79-2.53,2.63-2.51,2.74-4.5,3,5,6.14,10.06,9.06,15.17,1.35,2.38,2.76,2.79,4.91,1.08,1.72-1.37,3.56-2.59,5.34-3.88,2.08,1-.08,2.51.4,3.71h0l-.88.89h0Z"/><path class="cls-12" d="M518,83.19l1.79-.09,2.64,1.75c.62,4.23-3.1,7.47-2.63,11.65a2.05,2.05,0,0,0-.93,1.77,1.59,1.59,0,0,0-1.76,1.38,1.24,1.24,0,0,0,0,.43h0c-3.86,3-7.31,1.19-10.74-.91a1.61,1.61,0,0,1-.88-1.8,5.32,5.32,0,0,1,3.35.71c4.45,1.82,7.51.12,8.8-4.58.66-2.44-1-4.54-.6-6.88l.28-.89a2.2,2.2,0,0,0,.59-2.1l-.1-.25Z"/><path class="cls-12" d="M472.43,120.54c3.26,1.43,4.11,4.82,4.84,7.53,1.58,5.83,5.21,6.77,10.26,5.89v1l-2.48.25c-3,.39-6.46-.11-8.15,3.47a3.42,3.42,0,0,1-.83.1,2.63,2.63,0,0,0-2.24-1.2l-.47-3.4c1.82-.6,3.06-1.48,1.79-3.61C476,126.72,472.88,124,472.43,120.54Z"/><path class="cls-6" d="M506.39,99.17c3.43,2.1,6.88,3.87,10.74.91-3.06,3.49-3.4,8.59-7,11.77-.41-1.49.36-3.72-2.37-3.73a3.43,3.43,0,0,0,.43-2.69C508.87,103,506.75,101.33,506.39,99.17Z"/><path class="cls-11" d="M459.9,142.11c-2.09-2.42.7-4.13.89-6.22,1.89,5.65,1.89,5.64,8,3.4,1.5-.56,3-1,4.56-1.57l-.06,2.58h0l-.87.86h-.05l-1.08.87-.35.08a2.16,2.16,0,0,0-2.22.75l-.7.06-6.23-.06Z"/><path class="cls-9" d="M494,128.8c-.48-1.2,1.68-2.68-.4-3.71,1-1.26.38-2.36-.33-3.45l2.46-.94,3.79,1C498,124.3,497,127.34,494,128.8Z"/><path class="cls-11" d="M450,142.12c1.17.67.92,1.73.74,2.76a1.9,1.9,0,0,1-.42.18.94.94,0,0,0-1.11.68,2.36,2.36,0,0,1-.52.09l-6.69,0h0l-.89-.86h0l-.88-.87h-.07l.32-1.17C443.63,143.06,446.89,144.18,450,142.12Z"/><path class="cls-8" d="M507.78,108.12c2.73,0,2,2.24,2.37,3.73-.17,1.17-.23,2.41-1.76,2.69l-1.17-.16a5.93,5.93,0,0,0-.94-3.69Z"/><path class="cls-12" d="M499.44,121.71l-3.78-1,.12-2.07c2.31,1.41,4.66,1.1,7,.25l.12,1.14A3.74,3.74,0,0,1,499.44,121.71Z"/><path class="cls-6" d="M477,138.63c1.69-3.58,5.11-3.08,8.15-3.47C482.86,137.5,479.82,137.91,477,138.63Z"/><path class="cls-9" d="M442,145.8l6.63.07C446.37,148.39,444.16,148.8,442,145.8Z"/><path class="cls-8" d="M461.74,142.92,468,143l-.22,1.61c-2.06.22-4.13.53-6.06-.56Z"/><path class="cls-6" d="M454.43,144.8c.71-2.7,2.93-1.35,4.51-1.69l.07,1.06C457.63,145.35,456,144.73,454.43,144.8Z"/><path class="cls-6" d="M487.55,134.91v-1c.31-1.66,1.56-2.11,3-2.31C490.29,133.42,489.83,135,487.55,134.91Z"/><path class="cls-6" d="M476,139.47c-.16,2.25-1.66,2.75-3.57,2.73l-.12-1h.05l.87-.86h0Z"/><path class="cls-8" d="M476,139.47l-2.76.83.06-2.58.23-.21h.31a2.63,2.63,0,0,1,2.24,1.2C476.07,139,476,139.22,476,139.47Z"/><path class="cls-12" d="M459,144.12l-.07-1.06,1-.95,1.84.81V144Z"/><path class="cls-6" d="M467.75,144.59,468,143l.7-.06,1.19.31a1.56,1.56,0,0,1-1.64,1.47A1.53,1.53,0,0,1,467.75,144.59Z"/><path class="cls-6" d="M517.14,100.08a1.57,1.57,0,0,1,1.32-1.8,2,2,0,0,1,.43,0,1.59,1.59,0,0,1-1.3,1.81A1.7,1.7,0,0,1,517.14,100.08Z"/><path class="cls-8" d="M469.86,143.23l-1.19-.31a2.16,2.16,0,0,1,2.22-.75Z"/><path class="cls-9" d="M507.53,115.52l-.89.92-.35-.36.84-.91Z"/><path class="cls-9" d="M506.64,116.44l-.9.89-.35-.35.9-.9Z"/><path class="cls-9" d="M505.74,117.33l-.89.9-.35-.36.89-.89Z"/><path class="cls-9" d="M507.22,114.38l1.17.16-.86,1-.4-.35C507.17,114.9,507.2,114.64,507.22,114.38Z"/><path class="cls-9" d="M504.85,118.23l-.91.89-.36-.41.92-.84Z"/><path class="cls-9" d="M503,120l-.12-1.14.75-.13.36.41Z"/><path class="cls-9" d="M493,129.65l.88-.89Z"/><path class="cls-9" d="M492.14,130.72l.87-1.07Z"/><path class="cls-8" d="M472.32,141.22l.12,1-1.2-.11Z"/><path class="cls-9" d="M440.18,144l.88.87Z"/><path class="cls-9" d="M441.08,144.88l.89.86A.89.89,0,0,1,441.08,144.88Z"/><path class="cls-6" d="M449.13,145.74a.94.94,0,0,1,1.11-.68Z"/><path class="cls-5" d="M480.66,29.23c5,4.94,4.94,4.9,11.26.89,3.86-2.45,7.81-4.75,11.73-7.12.13,1.54,1.2,2.91.81,4.54-1.4,1.7-4,1.6-5.23,3.61h0l-1.32.87h-.09a1.9,1.9,0,0,0-1.7.89H496c-2.1,0-3.88.64-4.85,2.71h0a.87.87,0,0,0-.92.82s0,0,0,.06h0a.84.84,0,0,0-.9.8.14.14,0,0,0,0,.09h0C481.32,38.43,478.65,35.93,480.66,29.23Z"/><path class="cls-11" d="M491.32,45.32c1.07,3.2,2.87,4.3,6.4,3.21,6.08-1.9,12.33-3.27,18.5-4.86,2.43,2.31-1.17,3.39-1.06,5.23l-1.6.13-.94.08L509.1,50l-1.07.73-3.4.14-.92.87v.08a2.09,2.09,0,0,0-.85-.12c-1,0-2.12-.23-2.74,1v0l-1.76-.1-1.94.64-1.61.1C488.67,51.18,488.19,50.09,491.32,45.32Z"/><path class="cls-12" d="M499.23,31.15c1.19-2,3.83-1.91,5.23-3.61,3-1.58,6-2.83,9.08-.31C516.92,30,518,33.68,518,37.87c0,1.82-1,2.27-2.56,2.23l-.15-.84c1.4-3.84.28-6.94-2.73-9.53-2.82-2.44-5.53-1.2-8.25.19C502.73,30.74,501.12,31.53,499.23,31.15Z"/><path class="cls-6" d="M504.48,19.72l-1.62-2.92-.12-4.39,1-.17v0l.86.87h0C504.68,15.36,506.7,17.6,504.48,19.72Z"/><path class="cls-7" d="M502.74,12.43l.12,4.37c-6.19-6.17-8.18-6.13-13.53,1.08a40,40,0,0,1-7.21,7.1c-1.73-.26-1.63-1.67-1.82-2.9.14-.95.1-2,1.06-2.58,1.82-.1,1.79-1.41,1.78-2.7l2.18-3.6h.07a1.18,1.18,0,0,0,1.33-.89h0c.83.15,1.51,0,1.79-.91h0l1.31-.88h.09a4.06,4.06,0,0,0,4-1.81h0l4.44.18a2.7,2.7,0,0,0,2.71.73h0l.88.87h0a.89.89,0,0,0,.88.88h0Z"/><path class="cls-12" d="M485.32,13.22l-2.18,3.58a2.53,2.53,0,0,0-1.78,2.7c-1,.61-.92,1.63-1.06,2.58-3.69,2.52-.73,4.85.22,7.24l.14-.11c-2,6.7.66,9.2,8.72,8.16.31.6,1,1.21,0,1.79a16.33,16.33,0,0,1-6.23.93l-2.65-.94c-3.33-4.3-4.71-10.54-11.44-11.45-1.1-.15-1.95-.66-2-1.94,2.71.12,5.76,2.87,7.95-1l1-2.57a1.72,1.72,0,0,0,1.8-1.56c.5-3.46,2.95-5.52,5.4-7.59Z"/><path class="cls-12" d="M493.87,8.74a4.06,4.06,0,0,1-4,1.81C490.6,8.57,492.16,8.49,493.87,8.74Z"/><path class="cls-12" d="M498.3,8.93l-4.44-.13.85-1.2,3.64.27Z"/><path class="cls-12" d="M488.5,11.43c-.28.93-1,1.06-1.79.91C487,11.41,487.67,11.28,488.5,11.43Z"/><path class="cls-12" d="M486.72,12.33a1.18,1.18,0,0,1-1.33.89Z"/><path class="cls-12" d="M489.8,10.56l-1.31.88A1.15,1.15,0,0,1,489.8,10.56Z"/><path class="cls-7" d="M519.73,60.16c-1.58-6-1.58-6-8-4.74-4.51.89-9,1.83-13.52,2.72-1.49.29-3,.48-2.81,2.57a1.27,1.27,0,0,0-.67,0c0-2,.07-4,.11-6.06V54.5h1.73l1-.73h.72c1.38,1,1.75.24,1.85-1v-.05h2.73l.85-.86v-.08l.94.13a43.27,43.27,0,0,0,7.54-.62c2.33-.49,4.93-1.37,7,1C521.46,54.8,520.85,57.44,519.73,60.16Z"/><path class="cls-12" d="M519.85,63.35l.06-.89c1.8-2,4-1.68,6.16-.89v1.79c-1.5,2-1,4.55-2,6.69s-2.19,4.31-5.17,4.08l-1.42-.42c.36-1.56,1.72-2.24,2.73-3.26C522.61,68,523.5,65.54,519.85,63.35Z"/><path class="cls-8" d="M504.65,51.85l-.94-.13.92-.87Z"/><path class="cls-8" d="M508,50.71,509.1,50Z"/><path class="cls-8" d="M512.62,49.11l.94-.08C513.29,49.63,513,49.7,512.62,49.11Z"/><path class="cls-10" d="M440.15,19.62,434,19.56V17.71l6.18-.09.1.1Z"/><path class="cls-10" d="M432,12.26l-.77,3.67c-.94-.11-1.76-.41-1.64-1.57C429.76,13,430.8,12.49,432,12.26Z"/><path class="cls-5" d="M519.85,63.35c3.65,2.19,2.76,4.68.34,7.1-1,1-2.37,1.7-2.73,3.26l-1.87.1-.21-.31c-1.34-2-3.56-1.44-5.45-1.84l-1.72-.1c-2.6-.36-5.2-.76-7.81-1.09-5.92-.75-6.9-2-5.6-7.52a1.62,1.62,0,0,0,0-.44,2.08,2.08,0,0,0,0-.86v-1a1.27,1.27,0,0,1,.67,0c-.5,4.75,1.8,5.85,6.24,5.77,4.89-.1,9.81.28,14.73.3C519,66.8,519.86,65.67,519.85,63.35Z"/><path class="cls-7" d="M515.38,73.5l.21.31c-1.5,1-.76,1.86.08,2.78,1.06,1.13,2.48,2,2.38,3.89-6.32-1.5-12.62-3-19-4.47-1.41-.32-2.87-.84-4.33-.09-.11-2.65,2-2.6,3.71-3.06a27.93,27.93,0,0,1,9.69.32l1.79.07a4,4,0,0,0,.78.1c.63,1.73,1.32,1.82,2.08.08Z"/><path class="cls-9" d="M522.45,84.85l-2.64-1.75a3.45,3.45,0,0,1,2.47-2.24C523.62,82.14,524,83.44,522.45,84.85Z"/><path class="cls-12" d="M440.15,19.62l.07-1.9c2.66-.67,5.09-2.38,8-1.79l1.75,1c0,1.26.07,2.51,1.8,2.59l5.44.13V22.2c-3,.33-6-.41-8.94-.92-.37-1.75-1.56-3.21-3.11-3.31-1.78-.1-2,1.86-2.27,3.3C441.62,21.29,440.32,21.39,440.15,19.62Z"/><path class="cls-8" d="M498.3,8.93V7.82c1.29,0,2.65,0,2.66,1.84A2.7,2.7,0,0,1,498.3,8.93Z"/><path class="cls-8" d="M502.74,12.43l.07-1,.93.8Z"/><path class="cls-8" d="M504.63,13.18l-.86-.87Z"/><path class="cls-8" d="M502.8,11.44a.89.89,0,0,1-.88-.88Z"/><path class="cls-8" d="M501.9,10.54,501,9.67Z"/><path class="cls-9" d="M457.2,22.2V19.65l1.72-.07A7.81,7.81,0,0,0,464.37,24l2.6,1.83a2,2,0,0,0,2,1.94c6.73.91,8.11,7.15,11.44,11.45H476c-.48-1-.64-2.41-2.35-1.82a1.57,1.57,0,0,0-1.24-1.25,3.25,3.25,0,0,0-3.23-3.26,3.15,3.15,0,0,0-.44,0l.09.07c.78-1.19-.59-1.25-1-1.84a4.05,4.05,0,0,0-2.72-1.69L460.64,27C461.47,24,459,23.37,457.2,22.2Z"/><path class="cls-12" d="M464.41,24A7.81,7.81,0,0,1,459,19.58C462.13,19.35,463.6,21.24,464.41,24Z"/><path class="cls-8" d="M451.8,19.52c-1.73-.08-1.78-1.33-1.8-2.59h1.78c0,.27.05.53.07.79Z"/><path class="cls-12" d="M420.49,26.6c0,1.91-1.31,1.9-2.66,1.83l1.84-2.17A5.9,5.9,0,0,0,420.49,26.6Z"/><path class="cls-12" d="M424.06,23.8c.29,2.26-.7,3.16-2.93,2.73a.67.67,0,0,0-.17-.73l.43-1.15C422.45,24.93,423.21,24.21,424.06,23.8Z"/><path class="cls-11" d="M421,25.8a.68.68,0,0,1,.19.7.58.58,0,0,1-.51-.33A1,1,0,0,1,421,25.8Z"/><path class="cls-12" d="M454.55,112.64c-4.46-.26-8.57-2.75-13.43-1.33-1.63.47-2.9-2.32-1.94-4.81,1.11-2.86,2.79-5.52,2.86-8.79.08-3.48-.92-6.11-4.32-7.47l.06-1a1.16,1.16,0,0,0,.56-.65l17.8-.19v.9c-3.11,1.78-3.57,4.58-3.46,7.89.07,2.29,2.81,2.62,2.8,4.73l-.15,2.51c-2,.29-2.84,1.48-2.47,3.4s1.88,1.86,3.39,2.1c2.72.43,5.58-1.13,8.18.62l-.11,1a12.23,12.23,0,0,1-5.06-.65,1.08,1.08,0,0,0-1.09.89,3.38,3.38,0,0,1-.1.71Z"/><path class="cls-8" d="M472.45,36.12a1.57,1.57,0,0,1,1.24,1.25c.73.68.64,2.41,2.35,1.82H476c.84,3.85,2.63,7.44,2.88,11.46.13,1.92,3.23.66,3.41,2.78l-.12.35c-6.9-1.76-11.71,1.07-15.11,6.94h0l-1.86-.09c0-1.61,1.39-2.47,2-3.77.94-2,1.32-3.86-1.12-5.13l.42-3.44.31-.06h.31c1.24,2.83,3.29,2.21,4,.16.86-2.59,1.53-5.88-2.26-7.4a15.81,15.81,0,0,1-4.47-4.42c-.26-.67-.56-.68-.91-.07l-1.71-.09-.06-1.71c2.36-.77.53-3.26,1.82-4.47a1.36,1.36,0,0,1,.85.2,2.83,2.83,0,0,0,2.59,1.2A2.19,2.19,0,0,0,468.84,33l-.09-.07C469.58,34.44,471.07,35.22,472.45,36.12Z"/><path class="cls-10" d="M464.43,110.6c-2.6-1.75-5.46-.19-8.18-.62-1.51-.24-3-.25-3.39-2.1s.48-3.11,2.47-3.4l.77,1,.21.9c2.63,4,6.13,1.94,9,.87,3.51-1.28,6.52-3.57,6.11-8.1,4.87-5,8.32-10.92,11.62-17,1.23,1.18,2.8.15,4.07.52.9,1.56-.6,2.64-.48,4-.89,1.16-2.61,1.64-2.92,3.22-1.51,7.62-7.82,11.27-13,15.91a22.4,22.4,0,0,0-2,2.37,1.7,1.7,0,0,0-1.81,1.57.54.54,0,0,0,0,.18,2.49,2.49,0,0,0,0,.77Z"/><path class="cls-6" d="M466.8,78.59c-.88,1.31-2.13.66-3.27.6,0-2-.26-4-2.44-4.79s-5.57-.24-6.18,1.19c-1.63,3.85-4.94,2.49-7.45,3.48h-2c-1.66-1.16-3.85.13-5.61-1.83-3.81-4.22-9-3.13-11.26,2-1.88.38-2-.79-1.74-2.1.45-2,1-4,1.57-6,.87,1.59,2.4,1.12,3.76,1.18h9l1.62.06c1.75,2.74,4.48,2.07,6.73,1.41a41.91,41.91,0,0,1,13-1.45c1.36-.06,2.89.42,3.77-1.18A12.88,12.88,0,0,1,467,76.8c-.58.06-1.26.11-1.32.82S466.22,78.49,466.8,78.59Z"/><path class="cls-9" d="M414.18,68.8a5.25,5.25,0,0,1,.87.14c1.55.5.9,3.72,3.1,3,2-.67,2.34-2.82,2.36-4.81,2.58.31,4,1.06,2.88,4.24a22.2,22.2,0,0,0-1,10c-3.58,2-1.42,3.64.44,5,3.85,2.92,8.42,1.91,12.76,2.13v2.57c-3.38-.39-6.85-.41-10.11-1.25-7.13-1.85-10-5.9-10.34-13.56C415,73.74,414.5,71.26,414.18,68.8Z"/><path class="cls-12" d="M508.17,73.18a27.93,27.93,0,0,0-9.69-.32c-2.52-3.2-4.75-.84-6.21.84-1.94,2.23-1.89,4.93.86,6.94l-.34,2.42c-3.87-.53-5-4.54-7.89-6.27l.18-1.79a2.52,2.52,0,0,0,.59-2.79.91.91,0,0,1,.22-.8c1-.68.78-1.72.84-2.68,2.16-.87,3.37-2.12,1.76-4.47V62.48a7.75,7.75,0,0,1,6.26,0,1.09,1.09,0,0,1,0,.44c-1.29,5.48-.32,6.77,5.6,7.52,2.61.33,5.21.73,7.81,1.09Z"/><path class="cls-10" d="M456.14,88.45l-17.8.19a3,3,0,0,0-.57-.16,20,20,0,0,0-.18-2.67c-.69-3.38.68-4.69,4-4.45,2.52.18,5.06.08,7.59.08C456.34,81.44,456.34,81.43,456.14,88.45Z"/><path class="cls-12" d="M468.85,79.57c1.69-2.83,1.2-5.87.86-8.89l.94-3.57c1.82-.23,4,.3,5-2h0c4.22,1.43,1.34,4.73,1.89,7.13a2.07,2.07,0,0,0-1.83,1.7c-.74,5.54-3.56,10-7,14.26L461,89.49a1.58,1.58,0,0,0-1.94.78,2.25,2.25,0,0,1-.74-.12c.52-2.81,3-2.16,4.79-2.66C468.64,85.87,470,84.13,468.85,79.57Z"/><path class="cls-9" d="M494.78,62.51a7.75,7.75,0,0,0-6.26,0c-.11-3.22.17-6.61-3.76-8a15.66,15.66,0,0,1-1.8-5.78c2.66-2.82,1.93-5.71.19-8.62a16.33,16.33,0,0,0,6.23-.93l.1,2.23a6.09,6.09,0,0,1,1.58,3.17c-4.41.43-5.5,2.26-3.49,6,1.15,2.18,2.7,4,5.5,3.88-1.08,2.79-1.67,5.45,1.74,7.15A2.27,2.27,0,0,1,494.78,62.51Z"/><path class="cls-6" d="M475.63,65.13h0c-2,1.62-5.14-.93-6.82,1.86l.1-.1c-1.54.44-1.78,2-2.57,3-1.83-3.27-1.26-5.52,2.55-6.74,2.45-.78,4.67-2,4.44-5.2h0c1.41-.17,3.3.59,3.56-1.83,1.81-.7,5.09,1.79,5.29-2.43l.12-.35c1.24,2.11,1,4.47,1.44,7.1-4.93-1.79-6.8,1-8.07,4.64Z"/><path class="cls-9" d="M413.39,59.8a.76.76,0,0,0-.07-.82c2.55-4.57,2.8-4.61,7.06-1.67a7.43,7.43,0,0,0,2,.7c1.95.59,2.18,3.31,4.4,3.58v1h-1.62c-2.45-.46-3.68.66-3.94,3-2.29-.65-4.86-.7-4.43-4.48C417,59.3,414.8,59.66,413.39,59.8Z"/><path class="cls-7" d="M461,89.49l7.79-1.27c2.22-.34,2.68,1.68,3.78,2.83-4.19,3.29-9.21,2.27-13.91,2.46-1.61.06-1.1-2-1-3.33l.35.11.35-.14a2.25,2.25,0,0,0,.74.12C460.25,91.56,460.56,90.48,461,89.49Z"/><path class="cls-11" d="M435.57,88.49c-4.34-.22-8.91.79-12.76-2.13-1.86-1.41-4-3-.44-5,2.42,3.66,6.27,3.6,9.89,3.39C435.45,84.52,436.28,85.63,435.57,88.49Z"/><path class="cls-6" d="M472.49,91.05c-1.1-1.15-1.56-3.17-3.78-2.83,3.42-4.22,6.24-8.72,7-14.26a2.07,2.07,0,0,1,1.83-1.7,2.5,2.5,0,0,0,.31.84C477.11,79.4,475.71,85.5,472.49,91.05Z"/><path class="cls-9" d="M473.3,58c.23,3.2-2,4.42-4.44,5.2-3.81,1.22-4.38,3.47-2.55,6.74v1.17c-.88,1.6-2.41,1.12-3.77,1.18-1.34-3.43,0-6.6.92-9.81,1.4-.18,3.28.6,3.57-1.79h0C469.81,61.38,470.82,58,473.3,58Z"/><path class="cls-7" d="M447.46,79.07c2.51-1,5.82.37,7.45-3.48.61-1.43,3.88-2,6.18-1.19s2.47,2.76,2.44,4.79C458.17,79.29,452.81,79.64,447.46,79.07Z"/><path class="cls-5" d="M471.46,99.11c.41,4.53-2.6,6.82-6.11,8.1-2.91,1.07-6.41,3.16-9-.87,4.42.2,7.69-2.47,11.16-4.58C468.83,100.94,469.85,99.57,471.46,99.11Z"/><path class="cls-7" d="M428.59,79.19c2.24-5.09,7.45-6.18,11.26-2,1.76,2,3.95.67,5.61,1.83A117.29,117.29,0,0,1,428.59,79.19Z"/><path class="cls-11" d="M458.24,90.15l-.35.14-.35-.11c-1.07-4,.41-6.17,4.59-6.3,3.13-.1,4.87-2.27,6.72-4.31,1.14,4.56-.21,6.3-5.82,7.92C461.27,88,458.76,87.34,458.24,90.15Z"/><path class="cls-8" d="M484.9,76.8c2.91,1.73,4,5.74,7.89,6.27l.15.9c-1.8.1-1.76,1.4-1.75,2.68h-4.52c-.12-1.31,1.38-2.39.48-4-1.27-.37-2.84.66-4.07-.52Z"/><path class="cls-6" d="M483.12,40.11c1.74,2.91,2.47,5.8-.19,8.62l-6.05-9.56h3.59Z"/><path class="cls-6" d="M455.48,102c0-2.11-2.73-2.44-2.8-4.73-.11-3.31.35-6.11,3.46-7.89a78.92,78.92,0,0,1,.09,12.49Z"/><path class="cls-6" d="M484.76,54.45c3.93,1.42,3.65,4.81,3.76,8v1.78a5,5,0,0,0-1.76,4.47c-.07,1,.11,2-.85,2.68A88.14,88.14,0,0,0,484.76,54.45Z"/><path class="cls-7" d="M425.16,62.61h3.06c.09.27.16.55.23.83l.17,2.63v3.51l-.19.35a17.78,17.78,0,0,0-5.33-3.72C423.08,64.58,425,64.11,425.16,62.61Z"/><path class="cls-9" d="M428.62,66l-.17-2.63,2.83-.07h0c1,2.91.91,5.93.89,8.94-1.36-.06-2.89.41-3.76-1.18V69.9l.19-.35A1.47,1.47,0,0,0,430.28,68a1.66,1.66,0,0,0-1.28-2A1.69,1.69,0,0,0,428.62,66Z"/><path class="cls-6" d="M437.56,92.8c2.55,2.56,2.5,5-.16,7.35Z"/><path class="cls-10" d="M477.83,73.1a2.5,2.5,0,0,1-.31-.84c-.55-2.4,2.33-5.7-1.89-7.13h0l2.8-3A27.23,27.23,0,0,1,477.83,73.1Z"/><path class="cls-6" d="M425.16,62.61c-.15,1.5-2.08,2-2,3.57l-1.9-.54C421.48,63.27,422.71,62.15,425.16,62.61Z"/><path class="cls-6" d="M470.65,67.11l-.94,3.57a4,4,0,0,1-.83-3.79l-.1.1Z"/><path class="cls-9" d="M466.8,78.59c-.58-.1-1.24-.22-1.18-1s.74-.76,1.32-.82Z"/><path class="cls-11" d="M455.48,102l.75-.13-.13,3.6-.77-1Z"/><path class="cls-11" d="M485.67,72.21a2.52,2.52,0,0,1-.59,2.79A3,3,0,0,1,485.67,72.21Z"/><path class="cls-9" d="M437.77,88.48a3,3,0,0,1,.57.16,1.16,1.16,0,0,1-.56.65A.79.79,0,0,1,437.77,88.48Z"/><path class="cls-12" d="M461.66,34.69l.06,1.71-1,.19H459c-4.09-1.17-6.95.57-9.13,5.55-.72,1.62-1.29,3.45-3.62,3.26s-2.14-1.93-2.61-3.5c-1.25-4.22-4.47-6.12-8.9-6.37-3.68-.2-6.18,2.86-9.66,2.85l-.12-.13a5.72,5.72,0,0,1,3.89-2.71c6.64-1.88,13.35-3.43,20.31-1.76,1.18,1.33,2.38,1.31,3.59,0C455.69,34.26,458.63,35,461.66,34.69Z"/><path class="cls-9" d="M421.39,44.53c.39-.88,1-1.69.78-2.74l1-1.76.11.17c-.06,2.78-.56,5.65,1.72,7.93-.11,1,.17,2.09-.9,2.75.24-2-1.08-2.68-2.71-3Z"/><path class="cls-8" d="M452.73,33.8c-1.21,1.26-2.41,1.28-3.59,0a2.21,2.21,0,0,1,3.1-.44A2.28,2.28,0,0,1,452.73,33.8Z"/><path class="cls-5" d="M452.72,26.7a3.2,3.2,0,0,1,2.93.68A2.7,2.7,0,0,1,452.72,26.7Z"/><path class="cls-12" d="M424,39.14l.9-.9.12.13-.9.88Z"/><path class="cls-12" d="M423.16,40l.88-.89.12.11-.89,1Z"/><path class="cls-9" d="M442.88,21.27c.3-1.44.49-3.4,2.27-3.3,1.55.1,2.74,1.56,3.11,3.31Z"/><path class="cls-6" d="M454.55,112.64l3.52-.06-.83,4.13c-.84,1.62.33,3.19.13,4.79-5.26-1.12-5.45-.9-5.58,4.4a37.81,37.81,0,0,0,.87,6.53c.33,2.33.2,4.53-3,4.75-1-4.52-.62-9.16-1-13.73,2.08-3.83,1.52-7.84-1.5-8.8-3.75-1.19-5.49,1-6.23,4.41-.06.26-.35.47-.53.7-2.1-2.51-.36-4.63,1.22-6.07,2.13-2,5-1.47,7.53-.42C451.18,114.12,453.08,115.88,454.55,112.64Z"/><path class="cls-7" d="M440.4,119.8c.18-.23.47-.44.53-.7.74-3.38,2.48-5.6,6.23-4.41,3,1,3.58,5,1.5,8.8-1-1.73.94-5-3.07-5.25-3-.23-2.68,2-3.44,3.47l-1.78-.29Z"/><path class="cls-6" d="M440.37,121.38l1.78.29a89.84,89.84,0,0,1-1.7,15.61c-1.15-1.82-1.21-3.86-1.17-5.92v-1.73c1.28-1.18,1.26-2.39.07-3.62v-2.65C440.13,122.92,440.2,122.13,440.37,121.38Z"/><path class="cls-9" d="M439.37,126c1.19,1.23,1.21,2.44-.07,3.62C438.06,128.4,438,127.2,439.37,126Z"/><path class="cls-10" d="M424.09,50.88c1.07-.66.79-1.77.9-2.75a.94.94,0,0,1,.54.15l.49,4.14c-1.52,5.33.15,7.86,5.57,9.12,3.51.81,5.78-1.53,8.53-2.7.21,2.63-1,4.21-3.6,4.45-1.73.16-3.49,0-5.23.05h0c-.8-1.13-2-.87-3.06-.76h-.4l-1-1c-2.22-.27-2.45-3-4.4-3.58a13.25,13.25,0,0,1,.93-6.87C423.59,51,423.84,51,424.09,50.88Z"/><path class="cls-7" d="M424.09,50.88c-.27.07-.53.14-.78.23-3-1.08-6.85,1.8-9.29-2l.25-1.89c2.44-.63,4.71.74,7.11.58C423,48.2,424.33,48.85,424.09,50.88Z"/><path class="cls-11" d="M412.47,58.88c-1.08.06-2.18.26-3.05-.65l1.3-.28Z"/><path class="cls-12" d="M421.38,47.8c-2.4.16-4.67-1.21-7.11-.58-1.48-1.21-.75-2.81-.77-4.28,2.63.55,4.72,3.8,7.89,1.56Z"/><path class="cls-5" d="M467,31.63a2.83,2.83,0,0,1-2.66-1.21l.86-1a4,4,0,0,1,2.8,1.7Z"/><path class="cls-6" d="M457.25,121.49c.81.41.66,1.16.65,1.86Z"/><path class="cls-12" d="M473.12,110.74l1.09,1.94c-.11,2-3.53,2-2.74,4.5-3.36-.91-3.11-4.3-4.51-6.56a2.49,2.49,0,0,1,0-.77,1.57,1.57,0,0,0,1.81-1.75,22.4,22.4,0,0,1,2-2.37c5.14-4.64,11.45-8.29,13-15.91.31-1.58,2-2.06,2.92-3.22h4.52A2.57,2.57,0,0,0,494,88.3l.82,1.88a8.13,8.13,0,0,1-2.15-.2c-2.62-1-5.09-1.35-7.19,1.08s-1.87,4.72-.56,7.26l-.31.8a1.11,1.11,0,0,0,0,1.57l.14.11.28.1a7.07,7.07,0,0,0,2.74,6.94c1.17,1,2.66,1.94,2.51,3.86-3.44-.88-5.25-3.71-7-6.32s-4.26-3.64-6.81-2.17S471,106.85,473.12,110.74Z"/><path class="cls-6" d="M467,110.62c1.4,2.26,1.15,5.65,4.51,6.56a5.89,5.89,0,0,0,1,3.36c.45,3.45,3.53,6.18,2.74,10a3.17,3.17,0,0,0-2,2.05A65.92,65.92,0,0,1,468,121.13a11.47,11.47,0,0,0-3.59-9.5l.11-1Z"/><path class="cls-5" d="M494.77,90.22,494,88.34l-.07-3.5c5.4,2.47,10.81,4.91,16.21,7.4,4.53,2.08,4.56,2.07,6-2.71.29-1,.68-1.94,1-2.91-.35,2.34,1.26,4.44.6,6.88-1.29,4.7-4.35,6.4-8.8,4.58a5.32,5.32,0,0,0-3.35-.71h0a1.13,1.13,0,0,0-1.31-.88h-.08C503.3,93,500.6,92.2,497.5,92h0a1.13,1.13,0,0,0-1.3-.89h-.08l-1.32-.89Z"/><path class="cls-7" d="M504.12,96.48h.08l1.31.88h0a1.61,1.61,0,0,0,.88,1.8c.36,2.16,2.48,3.81,1.82,6.26-4.33-2.8-8.57-5.76-13-8.34-2.15-1.24-3-4.77-5.76-4.24-2.49.48-2.32,4.19-4.54,5.51-1.31-2.54-1.41-5,.56-7.26S490,89,492.66,90a8.13,8.13,0,0,0,2.15.2h0a1.17,1.17,0,0,0,1.32.89h.08l1.3.89h0C498.7,95,500.75,96.69,504.12,96.48Z"/><path class="cls-9" d="M517.34,85.73a2.36,2.36,0,0,1,.59-2.1A2.2,2.2,0,0,1,517.34,85.73Z"/><path class="cls-9" d="M473.19,132.57a3.17,3.17,0,0,1,2-2c1.27,2.13,0,3-1.79,3.61Z"/><path class="cls-8" d="M473.24,140.33l-.87.86Z"/><path class="cls-6" d="M493.19,121.6,492,120a2.9,2.9,0,0,0,1.17-2.1l2.58.18a2.36,2.36,0,0,1,.09.52l-.12,2.07Z"/><path class="cls-11" d="M495.78,118.59a2.36,2.36,0,0,0-.09-.52c0-1.79-1.36-2.29-2.71-2.79h0c0-1.88-1.14-2.88-2.72-3.55h0c.15-1.92-1.34-2.88-2.51-3.86a7.07,7.07,0,0,1-2.74-6.94c4.66,3.71,8.32,8.43,12.65,12.46,3.75,3.48,3.78,3.44,6.94-.68.54-.7,1.12-1.35,1.69-2a5.93,5.93,0,0,1,.94,3.69,2.4,2.4,0,0,1-.09.79l-.84.91-.9.9-.9.89-.91.84-.75.13C500.45,119.69,498.09,120,495.78,118.59Z"/><path class="cls-6" d="M480.52,29.34c-.95-2.39-3.91-4.72-.22-7.24.19,1.23.09,2.64,1.82,2.9C481.31,26.34,479.1,27.17,480.52,29.34Z"/><path class="cls-7" d="M489.45,41.41l-.1-2.23c1-.58.34-1.19,0-1.79h0a.85.85,0,0,0,.89-.82.15.15,0,0,0,0-.07h0a.87.87,0,0,0,.91-.84v0h0A4.45,4.45,0,0,0,496,32.91h.09l1.7-.89H498a1.19,1.19,0,0,0,1.32-.87h0c1.89.38,3.5-.41,5.1-1.23,2.72-1.39,5.43-2.63,8.25-.19,3,2.59,4.13,5.69,2.73,9.53-3.55-7.2-3.61-7.35-11.1-4.49C499.17,36.68,494,38.4,489.45,41.41Z"/><path class="cls-8" d="M493,54.5c-2.8.09-4.35-1.7-5.5-3.88-2-3.78-.92-5.61,3.49-6a.76.76,0,0,1,.29.74c-3.13,4.77-2.65,5.86,3.51,8v1.3Z"/><path class="cls-12" d="M496,32.92a4.45,4.45,0,0,1-4.85,2.71C492.16,33.56,494,33,496,32.92Z"/><path class="cls-12" d="M499.24,31.14a1.19,1.19,0,0,1-1.32.87Z"/><path class="cls-12" d="M497.83,32l-1.7.89A1.9,1.9,0,0,1,497.83,32Z"/><path class="cls-12" d="M491.2,35.62a.88.88,0,0,1-.88.88h0a.86.86,0,0,1,.85-.88Z"/><path class="cls-12" d="M490.28,36.5a.86.86,0,0,1-.83.89h-.07a.84.84,0,0,1,.8-.89Z"/><path class="cls-6" d="M500.14,52.68c-.1,1.28-.47,2.06-1.85,1l.09-1.14Z"/><path class="cls-12" d="M502.86,52.66h-2.74c.62-1.18,1.72-1,2.74-.95Z"/><path class="cls-8" d="M498.38,52.58l-.09,1.14h-.69l-1-.16-.13-.35Z"/><path class="cls-9" d="M494.87,54.5V53.32l1.61-.1.13.35v.89Z"/><path class="cls-6" d="M502.86,52.66v-1a2.09,2.09,0,0,1,.85.12Z"/><path class="cls-6" d="M481.36,19.52a2.53,2.53,0,0,1,1.78-2.7C483.15,18.11,483.18,19.42,481.36,19.52Z"/><path class="cls-6" d="M493,54.5l1.82.12c0,2-.07,4-.11,6.06v1C491.37,60,492,57.29,493,54.5Z"/><path class="cls-6" d="M496.6,54.46v-.89l1,.16Z"/><path class="cls-6" d="M493.13,80.64c-2.75-2-2.8-4.71-.86-6.94,1.46-1.68,3.69-4,6.21-.84-1.7.46-3.82.41-3.71,3.06h0c-1.26.63-.86,1.8-.92,2.82A2.16,2.16,0,0,1,493.13,80.64Z"/><path class="cls-10" d="M493.88,84.8l.07,3.5a2.57,2.57,0,0,1-2.76-1.7c0-1.28-.05-2.58,1.75-2.68Z"/><path class="cls-7" d="M493.86,78.72c.06-1-.34-2.19.92-2.82C494.73,76.92,494.76,78,493.86,78.72Z"/><path class="cls-12" d="M515.38,73.5l-2.56-.07-2.08-.08a4,4,0,0,1-.78-.1V71.66C511.82,72.06,514,71.47,515.38,73.5Z"/><path class="cls-9" d="M510,71.66v1.59l-1.79-.07V71.56Z"/><path class="cls-6" d="M510.74,73.35l2.08.08C512.06,75.17,511.37,75.08,510.74,73.35Z"/><path class="cls-7" d="M464.32,111.63a11.47,11.47,0,0,1,3.59,9.5c-1.72-1.83-1.41-5.54-3.65-6.13-2.05-.54-4.66,1.06-7,1.71l.83-4.13a3.38,3.38,0,0,0,.1-.71l1.09-.89A12.31,12.31,0,0,0,464.32,111.63Z"/><path class="cls-9" d="M459.26,111l-1.09.89A1.08,1.08,0,0,1,459.26,111Z"/><path class="cls-11" d="M464.4,53.65l1.65-2c2.44,1.27,2.06,3.09,1.12,5.13-.6,1.3-2,2.16-2,3.77h0c-1.5.22-3.2-.51-4.44.93h-2.66a10.75,10.75,0,0,0-4.38-2.82c.27-2.35-2.46-4.74.1-7l.7.92c.52,3.16,1.36,6.09,5.33,6.27C463.52,59,464.09,56.43,464.4,53.65Z"/><path class="cls-12" d="M473.3,58c-2.48,0-3.49,3.38-6.25,2.68,3.4-5.87,8.21-8.7,15.11-6.94-.2,4.22-3.48,1.73-5.29,2.43-2.19-1.34-3.05-.09-3.56,1.83Z"/><path class="cls-6" d="M466.47,48.26l-.36-2.5c.52-3.57-.48-6.31-4.17-7.55a1.85,1.85,0,0,1-1.23-1.62l1-.19,1.71.09.91.07A15.81,15.81,0,0,0,468.8,41c-.34,2.47,1.18,5.38-1.72,7.24h-.31Z"/><path class="cls-12" d="M467.09,48.22c2.9-1.86,1.38-4.77,1.72-7.24,3.79,1.52,3.12,4.81,2.26,7.4C470.38,50.43,468.33,51.05,467.09,48.22Z"/><path class="cls-12" d="M467,60.69c-.29,2.39-2.17,1.61-3.57,1.79h0l1.76-1.84h0Z"/><path class="cls-12" d="M464.34,36.56l-.91-.07C463.78,35.88,464.08,35.89,464.34,36.56Z"/><path class="cls-8" d="M468.81,108.1a1.54,1.54,0,0,1-1.81,1.75,1.69,1.69,0,0,1,1.62-1.75Z"/><path class="cls-12" d="M458.11,61.55h2.66c.63,1.09,1.69.88,2.68.91h0c-.94,3.21-2.26,6.38-.92,9.81a41.91,41.91,0,0,0-13,1.45c-2.25.66-5,1.33-6.73-1.41h6.12c2.38-.11,4.81-.35,5.5-3.24s-1.35-3.86-3.42-4.8L450.75,54c.06-1.61,1.11-2.72,2-3.94h.65l.45,1.66c-2.56,2.31.17,4.7-.1,7C454.16,61.26,455,63.29,458.11,61.55Z"/><path class="cls-12" d="M431.29,63.34c1.74,0,3.5.11,5.23-.05,2.62-.24,3.81-1.82,3.6-4.45l-.12-7.3.4-1.62h.65c0,1.74,2,2.69,1.82,4.49,0,1.62.09,3.23,0,4.84-.12,1.83.8,4.13-1.07,5.34C438,67,439,69.52,441.22,72.24h-9C432.2,69.27,432.32,66.25,431.29,63.34Z"/><path class="cls-10" d="M441.2,72.27c-2.19-2.72-3.18-5.22.58-7.65,1.87-1.21,1-3.51,1.07-5.34.11-1.61,0-3.22,0-4.84a2.05,2.05,0,0,1,.65.1c.06,2.81.17,5.62.16,8.43,0,2.26-.36,4.53,2.91,5,2.92.38,4-1.12,4.43-3.66,2.07.94,4.09,2,3.42,4.8s-3.12,3.13-5.5,3.24c-2,.08-4.08,0-6.12,0Z"/><path class="cls-9" d="M486.74,68.73a5,5,0,0,1,1.76-4.47C490.11,66.61,488.9,67.86,486.74,68.73Z"/><path class="cls-6" d="M461,89.49c-.36,1-.67,2.07-1.94.78A1.58,1.58,0,0,1,461,89.49Z"/><path class="cls-9" d="M473.31,58c.51-1.92,1.37-3.17,3.56-1.83C476.61,58.59,474.72,57.8,473.31,58Z"/><path class="cls-12" d="M426.78,61.56l1,1H426.7Z"/><path class="cls-6" d="M428.62,66a1.65,1.65,0,0,1,1.73,1.56,1.6,1.6,0,0,1,0,.44c-.06,1.07-.68,1.5-1.68,1.52Z"/><path class="cls-12" d="M428.22,62.58c1.11-.11,2.26-.37,3.06.76l-2.83.07C428.38,63.13,428.31,62.85,428.22,62.58Z"/><path class="cls-6" d="M443.52,54.54a2.05,2.05,0,0,0-.65-.1c.15-1.8-1.81-2.75-1.82-4.49,0-.84.24-1.76-.61-2.4L440.18,45c-.06-4.83-2.53-7.74-6.49-7.65-5.1.13-7.86,3.13-7.76,8.46l-.4,2.45a.94.94,0,0,0-.54-.15c-2.28-2.28-1.78-5.15-1.72-7.93l.89-1,.9-.88c3.48,0,6-3,9.66-2.85,4.43.25,7.65,2.15,8.9,6.37.47,1.57.4,3.33,2.61,3.5s2.9-1.64,3.62-3.26c2.18-5,5-6.72,9.13-5.55-3.3,2.19-7.43,3.81-6.26,9.09V50c-.85,1.22-1.9,2.33-2,3.94l-1.7-1.7a.4.4,0,0,0,.11-.43c-.11-2-1.23-3-3.2-2.7-2.18.32-2.21,2-2.15,3.75Z"/><path class="cls-7" d="M452.72,45.67c-1.17-5.28,3-6.9,6.26-9.09h1.73A1.84,1.84,0,0,0,462,38.21c3.69,1.24,4.69,4,4.17,7.55-3.77-5.54-9.36-5.61-12.74-.15A.69.69,0,0,0,452.72,45.67Z"/><path class="cls-11" d="M437.49,54.8,440,51.54l.12,7.3c-2.75,1.17-5,3.51-8.53,2.7-5.42-1.26-7.09-3.79-5.57-9.12l3.42,3.17c-.11,2.79,1.55,3.37,3.93,3.34s3.4-1.25,3.29-3.55h.07Z"/><path class="cls-7" d="M493.11,117.89a2.9,2.9,0,0,1-1.17,2.1c-1.9-2.21-3.77-4.46-5.72-6.64-2.33-2.6-4.75-5.14-7.28-7.87-1.92,1.93-4.68,2.64-5.82,5.26-2.15-3.89.68-6,3.27-7.49s4.95-.51,6.81,2.17,3.61,5.44,7,6.32h0c-.15,2,.44,3.43,2.72,3.55h0Z"/><path class="cls-7" d="M484.56,99.16l.16,1.68a1.1,1.1,0,0,1-.28-1.54A.81.81,0,0,1,484.56,99.16Z"/><path class="cls-12" d="M504.12,96.48c-3.37.21-5.42-1.53-6.66-4.49C500.56,92.19,503.26,93,504.12,96.48Z"/><path class="cls-12" d="M497.46,92l-1.3-.89A1.13,1.13,0,0,1,497.46,92Z"/><path class="cls-12" d="M496.08,91.1a1.17,1.17,0,0,1-1.32-.89Z"/><path class="cls-12" d="M505.51,97.38l-1.31-.88A1.13,1.13,0,0,1,505.51,97.38Z"/><path class="cls-12" d="M493.11,117.89l-.13-2.61c1.35.5,2.69,1,2.71,2.79Z"/><path class="cls-12" d="M493,115.28c-2.28-.12-2.87-1.55-2.72-3.55C491.84,112.4,493,113.4,493,115.28Z"/><path class="cls-5" d="M464.4,53.65c-.31,2.78-.88,5.39-4.54,5.22-4-.18-4.81-3.11-5.33-6.27C457.62,54.86,461,55,464.4,53.65Z"/><path class="cls-5" d="M452.72,45.67a.68.68,0,0,1,.65-.06V50h-.65Z"/><path class="cls-8" d="M458.11,61.55c-3.19,1.74-3.95-.29-4.38-2.82A10.75,10.75,0,0,1,458.11,61.55Z"/><path class="cls-8" d="M463.45,62.46c-1,0-2.05.18-2.68-.91,1.24-1.44,2.94-.71,4.44-.93Z"/><path class="cls-8" d="M440.4,49.92V47.55c.85.64.56,1.56.61,2.4Z"/><path class="cls-7" d="M440.18,45C435.36,39.51,430,39.8,426,45.8c-.1-5.33,2.66-8.33,7.76-8.46C437.65,37.28,440.12,40.19,440.18,45Z"/><path class="cls-7" d="M445,52.36l-1.15.53c-.06-1.7,0-3.43,2.15-3.75s3.09.66,3.2,2.7C447.77,51.93,446.26,51.25,445,52.36Z"/><path class="cls-5" d="M445,52.36c1.28-1.11,2.79-.43,4.2-.52a.4.4,0,0,1-.11.43Z"/><path class="cls-5" d="M436.66,55.38c.11,2.3-.84,3.52-3.29,3.55s-4-.55-3.93-3.34Z"/><path class="cls-5" d="M437.49,54.8l-.76.57Z"/></g></g></svg>